HIERARCHY
ROOT Hips
{
 OFFSET 0.000000 0.000000 0.000000
 CHANNELS 6 Xposition Yposition Zposition Yrotation Xrotation Zrotation
 JOINT Chest
 {
  OFFSET 0.000000 9.585900 0.002600
  CHANNELS 3 Yrotation Xrotation Zrotation
  JOINT Chest2
  {
   OFFSET 0.000000 9.601200 -0.005300
   CHANNELS 3 Yrotation Xrotation Zrotation
   JOINT Chest3
   {
    OFFSET 0.000000 9.561800 0.000000
    CHANNELS 3 Yrotation Xrotation Zrotation
    JOINT Chest4
    {
     OFFSET 0.000000 9.552100 0.000000
     CHANNELS 3 Yrotation Xrotation Zrotation
     JOINT Neck
     {
      OFFSET 0.000000 14.453000 0.000000
      CHANNELS 3 Yrotation Xrotation Zrotation
      JOINT Head
      {
       OFFSET 0.000000 8.936500 -0.011300
       CHANNELS 3 Yrotation Xrotation Zrotation
       End Site
       {
        OFFSET 0.000000 17.073600 -0.006000
       }
      }
     }
     JOINT RightCollar
     {
      OFFSET -2.921100 9.558500 0.000000
      CHANNELS 3 Yrotation Xrotation Zrotation
      JOINT RightShoulder
      {
       OFFSET -13.519700 0.000000 0.000000
       CHANNELS 3 Yrotation Xrotation Zrotation
       JOINT RightElbow
       {
        OFFSET 0.000000 -29.696600 0.000000
        CHANNELS 3 Yrotation Xrotation Zrotation
        JOINT RightWrist
        {
         OFFSET 0.000000 -24.004700 0.000000
         CHANNELS 3 Yrotation Xrotation Zrotation
         End Site
         {
          OFFSET 0.000000 -17.728500 0.000000
         }
        }
       }
      }
     }
     JOINT LeftCollar
     {
      OFFSET 2.921100 9.558500 0.000000
      CHANNELS 3 Yrotation Xrotation Zrotation
      JOINT LeftShoulder
      {
       OFFSET 13.519700 0.000000 0.000000
       CHANNELS 3 Yrotation Xrotation Zrotation
       JOINT LeftElbow
       {
        OFFSET 0.000000 -29.696600 0.000000
        CHANNELS 3 Yrotation Xrotation Zrotation
        JOINT LeftWrist
        {
         OFFSET 0.000000 -24.004700 0.000000
         CHANNELS 3 Yrotation Xrotation Zrotation
         End Site
         {
          OFFSET 0.000000 -17.728500 0.000000
         }
        }
       }
      }
     }
    }
   }
  }
 }
 JOINT RightHip
 {
  OFFSET -7.771700 -0.012900 -0.001300
  CHANNELS 3 Yrotation Xrotation Zrotation
  JOINT RightKnee
  {
   OFFSET 0.000000 -40.869800 0.001200
   CHANNELS 3 Yrotation Xrotation Zrotation
   JOINT RightAnkle
   {
    OFFSET 0.000000 -39.717900 0.002100
    CHANNELS 3 Yrotation Xrotation Zrotation
    JOINT RightToe
    {
     OFFSET 0.000000 -4.965400 11.033500
     CHANNELS 3 Yrotation Xrotation Zrotation
     End Site
     {
      OFFSET 0.000000 -1.423100 5.872300
     }
    }
   }
  }
 }
 JOINT LeftHip
 {
  OFFSET 7.771700 -0.012900 -0.001300
  CHANNELS 3 Yrotation Xrotation Zrotation
  JOINT LeftKnee
  {
   OFFSET 0.000000 -40.869800 0.001200
   CHANNELS 3 Yrotation Xrotation Zrotation
   JOINT LeftAnkle
   {
    OFFSET 0.000000 -39.717900 0.002100
    CHANNELS 3 Yrotation Xrotation Zrotation
    JOINT LeftToe
    {
     OFFSET 0.000000 -4.965400 11.033500
     CHANNELS 3 Yrotation Xrotation Zrotation
     End Site
     {
      OFFSET 0.000000 -1.423100 5.872300
     }
    }
   }
  }
 }
}
MOTION
Frames: 12
Frame Time: 0.008333
-17.756786 46.990891 28.569439 -177.265464 -26.200914 -3.344698 0.070363 17.526507 1.644018 0.014386 1.928321 0.250792 -0.000793 3.184305 0.420204 0.272884 15.418632 2.070450 -0.160733 18.079156 0.870320 -0.612489 -2.236603 1.678241 -5.861826 1.163611 -6.421669 -6.928894 -1.160876 -12.984366 58.077203 -73.246554 -25.082455 1.538206 3.753518 -38.384927 -0.017956 -0.959919 4.311599 0.780958 -3.570835 11.453677 -88.878613 -58.955578 64.133004 -11.488071 16.358300 27.738405 16.314837 -59.103718 -20.567530 -156.275356 79.971095 -152.044036 -8.785221 -10.118597 0.421374 -0.030771 -0.596558 0.166557 -5.206585 -61.258587 7.477346 -108.398348 83.926713 -112.469713 3.841227 -6.547671 3.335833 0.474701 0.666137 0.265841
-17.758899 46.993277 28.570035 -177.229318 -26.195373 -3.347586 0.087308 17.545714 1.639948 -0.024898 1.910848 0.256193 0.027821 3.197501 0.415274 0.262546 15.413774 2.072653 -0.175181 18.066440 0.880799 -0.610486 -2.237440 1.677103 -5.870456 1.161883 -6.417917 -6.938270 -1.170850 -12.994248 58.070369 -73.251097 -25.064098 1.531507 3.755418 -38.368326 -0.038329 -0.950728 4.325194 0.795473 -3.587824 11.455761 -88.812438 -58.944947 64.123830 -11.499193 16.337091 27.720995 16.317435 -59.100813 -20.569736 -156.228229 79.961991 -152.014744 -8.828643 -10.119637 0.409640 -0.005475 -0.595347 0.168367 -5.178227 -61.264116 7.456627 -108.238479 83.922716 -112.335566 3.835908 -6.529203 3.385215 0.465561 0.659470 0.243534
-17.760251 46.995312 28.571449 -177.202508 -26.185287 -3.352549 0.084555 17.547415 1.636799 -0.015195 1.910745 0.254591 0.012631 3.192204 0.418193 0.285185 15.420662 2.069032 -0.176143 18.067609 0.878277 -0.611392 -2.235440 1.673021 -5.897652 1.170406 -6.423065 -6.944473 -1.188549 -12.984609 58.074348 -73.251055 -25.055538 1.521828 3.755716 -38.356508 -0.069264 -0.941166 4.342106 0.810313 -3.602622 11.459538 -88.775064 -58.934759 64.121716 -11.505396 16.320221 27.708104 16.316228 -59.103174 -20.582121 -156.197823 79.958937 -151.986074 -8.850020 -10.118559 0.396967 0.019286 -0.596561 0.152167 -5.164469 -61.273627 7.450020 -108.096258 83.918317 -112.215723 3.851560 -6.517445 3.405182 0.446176 0.656516 0.239392
-17.761353 46.997813 28.571888 -177.184805 -26.181992 -3.356689 0.085125 17.556247 1.637133 0.004648 1.921597 0.250805 0.012397 3.191539 0.416915 0.282698 15.419771 2.062748 -0.173882 18.061783 0.882811 -0.582108 -2.210476 1.631556 -5.920949 1.155831 -6.404114 -6.948432 -1.192874 -12.982259 58.094574 -73.241514 -25.063001 1.509691 3.750038 -38.359517 -0.091613 -0.940672 4.366663 0.825036 -3.615739 11.463343 -88.789077 -58.934711 64.138633 -11.502608 16.330512 27.712266 16.315847 -59.098339 -20.588341 -156.182389 79.958517 -151.970524 -8.865082 -10.121824 0.387503 0.032413 -0.594904 0.151709 -5.164934 -61.275712 7.446815 -108.012581 83.917698 -112.144465 3.883289 -6.512667 3.390163 0.406192 0.655556 0.249419
-17.762841 47.000342 28.572123 -177.161713 -26.179166 -3.361661 0.080393 17.566719 1.636119 -0.004871 1.915012 0.251304 0.015319 3.194556 0.415828 0.286815 15.421927 2.058125 -0.159393 18.081189 0.855883 -0.573044 -2.210794 1.626006 -5.925892 1.149119 -6.399609 -6.952374 -1.192214 -12.990975 58.097949 -73.240833 -25.055122 1.507667 3.742888 -38.344926 -0.098648 -0.933721 4.379583 0.840831 -3.624695 11.466026 -88.801584 -58.936552 64.154358 -11.503318 16.326245 27.708743 16.312830 -59.092266 -20.596470 -156.194759 79.959156 -151.987352 -8.868420 -10.124371 0.370104 0.029178 -0.594863 0.162085 -5.133397 -61.277990 7.428670 -107.860924 83.900224 -111.991957 3.858252 -6.508195 3.387117 0.409898 0.659195 0.261197
-17.763362 47.002646 28.572714 -177.145185 -26.173159 -3.369348 0.086373 17.573621 1.640592 -0.017735 1.909397 0.253110 0.028694 3.199939 0.412722 0.288806 15.421709 2.055895 -0.157553 18.084721 0.848287 -0.567094 -2.204356 1.611426 -5.936655 1.147101 -6.409283 -6.954245 -1.197406 -12.993635 58.056788 -73.255177 -25.011352 1.513024 3.747741 -38.323471 -0.116317 -0.939874 4.393704 0.849339 -3.627084 11.467474 -88.716786 -58.928057 64.124301 -11.520035 16.279259 27.678332 16.306492 -59.093752 -20.595014 -156.164790 79.955701 -151.961617 -8.857814 -10.120545 0.334547 0.025102 -0.597719 0.138800 -5.069938 -61.277894 7.423814 -107.581371 83.861094 -111.715435 3.789875 -6.516043 3.400708 0.449825 0.678484 0.291290
-17.767614 47.004428 28.573738 -177.104931 -26.162415 -3.364324 0.067694 17.576677 1.621436 -0.017334 1.908295 0.253318 0.035566 3.204097 0.410597 0.276033 15.415668 2.056182 -0.156407 18.086853 0.843302 -0.558858 -2.196185 1.591572 -5.940784 1.145234 -6.411493 -6.955116 -1.197918 -12.991199 58.052496 -73.260591 -25.008610 1.521577 3.750672 -38.304998 -0.124009 -0.926731 4.410122 0.855243 -3.647298 11.465113 -88.672626 -58.927536 64.108506 -11.521108 16.273129 27.675937 16.311837 -59.093384 -20.637782 -156.222258 79.954309 -152.030356 -8.863354 -10.121132 0.330537 0.017164 -0.600699 0.126520 -5.023281 -61.286122 7.376063 -107.407859 83.858053 -111.557740 3.763151 -6.510539 3.421182 0.430749 0.685063 0.289835
-17.768808 47.005768 28.575356 -177.083077 -26.146831 -3.368168 0.075865 17.573104 1.623264 0.005883 1.921782 0.249369 0.014374 3.191932 0.414434 0.251930 15.405631 2.058132 -0.155773 18.087420 0.841780 -0.544555 -2.183661 1.558212 -5.925028 1.152757 -6.425790 -6.969635 -1.201237 -12.977702 58.102982 -73.242978 -25.026095 1.506156 3.746695 -38.302346 -0.100257 -0.884214 4.412569 0.871804 -3.668192 11.474017 -88.692093 -58.934270 64.144663 -11.532895 16.258573 27.658042 16.321489 -59.100446 -20.658457 -156.184044 79.951265 -151.987968 -8.872612 -10.121386 0.307360 0.034455 -0.600450 0.128131 -4.988481 -61.299646 7.360161 -107.252621 83.851929 -111.413053 3.744651 -6.506609 3.439237 0.436715 0.691068 0.287721
-17.771525 47.007231 28.575826 -177.061760 -26.137748 -3.361807 0.082777 17.575898 1.617445 0.006305 1.922687 0.249144 0.015006 3.193338 0.414111 0.264296 15.405817 2.052301 -0.161939 18.087859 0.836912 -0.556375 -2.186746 1.551934 -5.941464 1.148429 -6.421371 -6.986850 -1.203513 -12.966987 58.100877 -73.239986 -25.009008 1.499034 3.740959 -38.316251 -0.132584 -0.889407 4.431857 0.873879 -3.672069 11.476095 -88.654464 -58.929971 64.136812 -11.517597 16.294425 27.673392 16.341377 -59.097223 -20.694173 -156.273613 79.959576 -152.075863 -8.894150 -10.129711 0.286173 0.045352 -0.594696 0.129818 -4.955960 -61.308033 7.328282 -107.120832 83.846481 -111.298000 3.755630 -6.499864 3.462579 0.413374 0.687866 0.254605
-17.778008 47.008244 28.575920 -177.027663 -26.129692 -3.337668 0.054534 17.575283 1.582097 0.006361 1.923143 0.249052 0.015091 3.194060 0.413927 0.281125 15.418000 2.050970 -0.152546 18.096399 0.813435 -0.576506 -2.203677 1.558375 -5.943327 1.138058 -6.426079 -6.984358 -1.188378 -12.974172 58.074811 -73.258355 -24.994417 1.490106 3.735324 -38.329442 -0.156156 -0.899044 4.442774 0.876387 -3.675856 11.477952 -88.632127 -58.922191 64.137615 -11.515026 16.302185 27.669655 16.385557 -59.087440 -20.769374 -156.337094 79.959590 -152.145434 -8.922501 -10.144612 0.285101 0.060439 -0.585368 0.120947 -4.891599 -61.317377 7.255079 -107.020133 83.860900 -111.241608 3.771475 -6.478544 3.536058 0.359141 0.673786 0.214314
-17.775600 47.009709 28.574691 -177.009416 -26.128448 -3.359501 0.058960 17.580730 1.602877 0.006213 1.923457 0.248959 0.014856 3.194529 0.413653 0.312347 15.442734 2.047015 -0.185779 18.066883 0.826031 -0.570541 -2.198241 1.537539 -5.960376 1.116987 -6.420988 -7.002448 -1.187118 -12.965667 58.088779 -73.260930 -24.994348 1.480301 3.726098 -38.344798 -0.169259 -0.878490 4.461757 0.878753 -3.720606 11.485341 -88.642786 -58.922320 64.155821 -11.515679 16.291636 27.655957 16.362134 -59.085466 -20.744448 -156.313902 79.956008 -152.119330 -8.925900 -10.143378 0.280106 0.060411 -0.589627 0.106573 -4.853092 -61.317503 7.267601 -106.866303 83.826982 -111.082856 3.725752 -6.485424 3.540047 0.387004 0.685997 0.239458
-17.774730 47.011182 28.572179 -176.995554 -26.135333 -3.370547 0.070689 17.597595 1.616848 0.006150 1.925358 0.248875 0.014952 3.197432 0.413598 0.318932 15.448141 2.045933 -0.193498 18.064366 0.819453 -0.582207 -2.213798 1.549252 -5.962161 1.108808 -6.423531 -7.001599 -1.185419 -12.971606 58.067575 -73.274875 -24.971377 1.474750 3.722725 -38.356209 -0.176023 -0.873211 4.471350 0.880928 -3.742301 11.489836 -88.627916 -58.918157 64.160191 -11.514246 16.301930 27.649929 16.365757 -59.072203 -20.742666 -156.332204 79.952073 -152.129341 -8.927596 -10.144320 0.249145 0.056257 -0.593447 0.118144 -4.818052 -61.310865 7.261414 -106.776468 83.801854 -110.980361 3.686014 -6.488514 3.528546 0.417401 0.692111 0.260295
